<!--?xml version="1.0" encoding="utf-8"?-->
<!-- Generator: Adobe Illustrator 18.1.1, SVG Export Plug-In . SVG Version: 6.00 Build 0)  -->

<svg version="1.1" id="_x31_0" xmlns="http://www.w3.org/2000/svg" xmlns:xlink="http://www.w3.org/1999/xlink" x="0px" y="0px" viewBox="0 0 512 512" style="width: 256px; height: 256px; opacity: 1;" xml:space="preserve">
<style type="text/css">
	.st0{fill:#374149;}
</style>
<g>
	<path class="st0" d="M256,0C114.641,0,0,114.641,0,256c0,141.442,114.641,256,256,256c141.442,0,256-114.558,256-256
		C512,114.641,397.442,0,256,0z M263.519,174C240.641,174,222,155.359,222,132.481c0-27.762,25.199-41.68,39.359-41.68
		c1.043,0,2.082,0.078,3.043,0.238c23.117,4,40.641,22.562,40.641,43.121C305.043,150.481,290.242,174,263.519,174z M239.68,421.199
		V272.082c0-11.043-1.278-13.602-13.68-13.602h-18.957v-46.082h86.878v208.801h-54.234H239.68z" style="fill: rgb(141, 141, 141);"></path>
</g>
</svg>
